<?xml version="1.0" encoding="utf-8"?>
<!-- Generator: Adobe Illustrator 19.2.1, SVG Export Plug-In . SVG Version: 6.00 Build 0)  -->
<svg version="1.1" id="Layer_1" xmlns="http://www.w3.org/2000/svg" xmlns:xlink="http://www.w3.org/1999/xlink" x="0px" y="0px"
	 viewBox="0 0 290.8 332.3" style="enable-background:new 0 0 290.8 332.3;" xml:space="preserve">
<style type="text/css">
	.st0{display:none;}
	.st1{display:inline;fill:none;stroke:#FF7242;stroke-width:14;}
	.st2{display:inline;fill:#FF7242;}
	.st3{fill:none;stroke:#FF7242;stroke-width:10;}
	.st4{fill:none;stroke:#FF7242;stroke-width:14;}
	.st5{fill:none;stroke:#FF7242;stroke-width:15;}
	.st6{fill:#FF7242;stroke:#FF7242;stroke-miterlimit:10;}
	.st7{fill:none;stroke:#FF7242;stroke-width:12;}
	.st8{fill:none;stroke:#FF7242;stroke-width:6;}
	.st9{fill:none;stroke:#FF7242;stroke-width:4.5;}
	.st10{fill:none;stroke:#FF7242;stroke-width:5.8;}
	.st11{fill:none;stroke:#FF7242;stroke-width:5.5;}
	.st12{fill:none;stroke:#FF7242;stroke-width:10.5;}
	.st13{fill:none;stroke:#FF7242;stroke-width:9;}
	.st14{fill:none;stroke:#FF7242;stroke-width:6.5;}
	.st15{fill:none;stroke:#FF7242;stroke-width:5;}
	.st16{fill:none;stroke:#FF7242;stroke-width:10.4;}
	.st17{fill:none;stroke:#464B50;stroke-width:7;}
	.st18{fill:none;stroke:#464B50;stroke-width:11;}
	.st19{fill:#464B4F;}
	.st20{fill:#FF7242;}
</style>
<g id="Layer_1_1_" class="st0">
	
		<image style="display:inline;overflow:visible;enable-background:new    ;" width="385" height="439" xlink:href="1BDE8EC92763C4FC.jpg"  transform="matrix(0.9974 0 0 0.9977 -50.25 -8.0835)">
	</image>
	<path class="st1" d="M144.5,38.8"/>
	<path class="st1" d="M107.5,203.8"/>
	<path class="st2" d="M59,83.5"/>
	<path class="st2" d="M51.3,96.9"/>
</g>
<g id="Layer_2">
	<path class="st3" d="M99.5,209.8"/>
	<path class="st3" d="M116.5,43.8"/>
	<path class="st4" d="M103.5,231.8c-80.3-103.3-5.7-163,43.2-164.5"/>
	<path class="st4" d="M146,67.3c84.5,2,108,93.5,49.5,159.5"/>
	<path class="st4" d="M141.4,48.5"/>
	<path class="st4" d="M128.1,47.5"/>
	<path class="st4" d="M102.5,229.8c6.3,15.3,7.3,19,6,41.7"/>
	<line class="st5" x1="102" y1="264.7" x2="193.7" y2="265"/>
	<path class="st4" d="M197,225.8c-10.2,12.2-9.7,20.8-10.5,34.3"/>
	<path class="st6" d="M117.2,193.2c0,4.9-4.8,8.8-9.7,8.8s-8.9-4-8.9-8.9s4-8.9,8.9-8.9S117.2,188.2,117.2,193.2z"/>
	<circle class="st6" cx="133.2" cy="210.3" r="5.3"/>
	<circle class="st6" cx="122.8" cy="106" r="13.7"/>
	<circle class="st6" cx="160.8" cy="125.3" r="8.2"/>
	<circle class="st6" cx="164" cy="165.8" r="8.2"/>
	<circle class="st6" cx="197.8" cy="170.7" r="13.9"/>
	<path class="st7" d="M119.5,232c0,14.7-0.2,26.7-0.5,26.7"/>
	<line class="st8" x1="107.3" y1="201.2" x2="107.3" y2="212"/>
	<line class="st9" x1="133" y1="214" x2="133" y2="226.5"/>
	<line class="st10" x1="116.5" y1="219.8" x2="116.5" y2="234"/>
	<line class="st11" x1="120.8" y1="118.6" x2="120.8" y2="147.1"/>
	<line class="st11" x1="161.4" y1="130.5" x2="161.4" y2="148.7"/>
	<line class="st12" x1="141" y1="159.3" x2="141.2" y2="201.5"/>
	<line class="st12" x1="155.8" y1="214.6" x2="156" y2="257.7"/>
	<line class="st7" x1="164.4" y1="237.6" x2="164.4" y2="258.3"/>
	<line class="st13" x1="165.2" y1="171.2" x2="165.3" y2="183.8"/>
	<line class="st3" x1="179.8" y1="194.5" x2="179.8" y2="224.3"/>
	<line class="st14" x1="197.8" y1="181.5" x2="197.8" y2="197.5"/>
	<path class="st8" d="M107.4,211.7c0,3.6,8.2,6.3,9.2,9.2"/>
	<path class="st9" d="M121.1,233.5c1.4-4.2,11.8-5,11.9-7.3"/>
	<path class="st15" d="M120.5,146.9c0.1,4.8,18,5.5,17.9,12.8"/>
	<path class="st15" d="M143.2,160c0.8-5.9,18.3-8.3,18.2-11.3"/>
	<path class="st16" d="M141.2,201.2c0.1,5.4,14.3,8.2,14.7,14.5"/>
	<path class="st3" d="M164.8,238c0.2-6.2,14.9-7.9,15-13.9"/>
	<path class="st13" d="M165.4,183.6c0.2,5.1,15.7,6.2,14.8,11.4"/>
	<path class="st14" d="M183.7,208.8c8.2,0.8,14.5-9.5,14.1-11.8"/>
</g>
<g id="Layer_3">
	<line class="st17" x1="102.2" y1="283.5" x2="194.5" y2="283.5"/>
	<line class="st17" x1="102.2" y1="297.2" x2="194.5" y2="297.2"/>
	<line class="st17" x1="105.8" y1="290.5" x2="191.8" y2="290.5"/>
	<line class="st17" x1="105.7" y1="303.8" x2="191.7" y2="304.2"/>
	<line class="st17" x1="104.7" y1="310.8" x2="192.5" y2="311"/>
	<path class="st17" d="M105.1,307.3c0.2,7.7,10,14.2,18.2,14.2"/>
	<path class="st17" d="M175,320.8"/>
	<path class="st17" d="M191.7,307.5"/>
	<path class="st17" d="M122.8,318.7c0,5.5,6.2,10.5,14.5,10"/>
	<path class="st17" d="M174,318.7c0,5.5-6.2,10.5-14.5,10"/>
	<path class="st17" d="M191.1,307.1c-0.2,7.7-9.8,14.6-18,14.6"/>
	<line class="st18" x1="132.3" y1="326.8" x2="164.5" y2="326.7"/>
	<line class="st18" x1="113.5" y1="314" x2="184.7" y2="313.5"/>
	<line class="st18" x1="125" y1="321.2" x2="173.2" y2="321.3"/>
	<line class="st17" x1="105.9" y1="286.8" x2="191.5" y2="286.8"/>
	<line class="st17" x1="108.6" y1="307.3" x2="189.4" y2="307.3"/>
	<line class="st17" x1="171.1" y1="300.6" x2="191.6" y2="300.8"/>
	<line class="st17" x1="109.9" y1="313.1" x2="116.6" y2="315.6"/>
	<line class="st17" x1="109.9" y1="284.7" x2="109.8" y2="311.5"/>
</g>
<g id="Layer_4">
	<path class="st6" d="M16.1,142.3c0,4.3-3.6,7.7-7.9,7.7s-7.8-3.4-7.8-7.7c0-4.3,3.5-7.8,7.8-7.8S16.1,138,16.1,142.3z"/>
	<path class="st6" d="M31,142.3c0,4.3,3.6,7.7,7.9,7.7s7.8-3.4,7.8-7.7c0-4.3-3.5-7.8-7.8-7.8S31,138,31,142.3z"/>
	<rect x="7.4" y="134.5" class="st6" width="31.9" height="15.5"/>
	<path class="st6" d="M30.9,208.2c2.3,3.7,1.1,8.4-2.6,10.7c-3.7,2.3-8.4,1.2-10.6-2.4c-2.3-3.7-1.2-8.5,2.5-10.8
		C23.8,203.4,28.7,204.5,30.9,208.2z"/>
	<path class="st6" d="M43.6,200.3c2.3,3.7,7.1,4.6,10.8,2.3c3.7-2.3,4.8-7,2.5-10.6c-2.3-3.7-7.1-4.8-10.8-2.5
		C42.4,191.8,41.3,196.7,43.6,200.3z"/>
	
		<rect x="21.1" y="196.6" transform="matrix(0.848 -0.5299 0.5299 0.848 -102.6668 50.682)" class="st6" width="31.9" height="15.5"/>
	<path class="st6" d="M82.8,32.8c-3.7,2.2-8.4,0.8-10.6-3c-2.2-3.7-1-8.4,2.8-10.6s8.5-0.9,10.7,2.9C87.8,25.9,86.5,30.7,82.8,32.8z
		"/>
	<path class="st6" d="M90.2,45.7c-3.7,2.2-4.9,6.9-2.7,10.7c2.2,3.7,6.8,5,10.5,2.9c3.7-2.2,5-6.9,2.9-10.7
		C98.8,44.8,94,43.5,90.2,45.7z"/>
	<rect x="78.7" y="23.1" transform="matrix(0.866 -0.5 0.5 0.866 -7.941 48.4457)" class="st6" width="15.5" height="31.9"/>
	<path class="st6" d="M33.8,77.9c-2.2,3.7-6.9,4.9-10.7,2.7c-3.7-2.2-5-6.8-2.9-10.5c2.2-3.7,6.9-5,10.7-2.9
		C34.6,69.4,35.9,74.1,33.8,77.9z"/>
	<path class="st6" d="M57.3,82.5c-3.7-2.2-8.5-0.9-10.7,2.9c-2.2,3.7-0.8,8.4,3,10.6"/>
	<path class="st6" d="M49.6,95.9c3.7,2.2,8.4,1,10.6-2.8c2.2-3.7,0.9-8.5-2.9-10.7"/>
	<rect x="32.3" y="65.5" transform="matrix(0.5 -0.866 0.866 0.5 -50.5443 75.3892)" class="st6" width="15.5" height="31.9"/>
	<path class="st6" d="M148.6,31c4.3,0,7.7,3.6,7.7,7.9s-3.4,7.8-7.7,7.8s-7.8-3.5-7.8-7.8S144.3,31,148.6,31z"/>
	<path class="st6" d="M148.6,16.1c4.3,0,7.7-3.6,7.7-7.9s-3.4-7.8-7.7-7.8s-7.8,3.5-7.8,7.8S144.3,16.1,148.6,16.1z"/>
	<rect x="140.8" y="7.9" class="st6" width="15.5" height="31.9"/>
	<path class="st6" d="M255.6,216.5c-2.3,3.7-1.1,8.4,2.6,10.7c3.7,2.3,8.4,1.2,10.6-2.4c2.3-3.7,1.2-8.5-2.5-10.8
		C262.7,211.8,257.8,212.9,255.6,216.5z"/>
	<path class="st6" d="M242.9,208.7c-2.3,3.7-7.1,4.6-10.8,2.3c-3.7-2.3-4.8-7-2.5-10.6c2.3-3.7,7.1-4.8,10.8-2.5
		C244.1,200.2,245.2,205,242.9,208.7z"/>
	
		<rect x="241.7" y="196.8" transform="matrix(0.5299 -0.8481 0.8481 0.5299 -63.0997 311.5483)" class="st6" width="15.5" height="31.9"/>
	<path class="st6" d="M259.8,150.3c0,4.3-3.6,7.7-7.9,7.7c-4.3,0-7.8-3.4-7.8-7.7c0-4.3,3.5-7.8,7.8-7.8
		C256.3,142.5,259.8,146,259.8,150.3z"/>
	<path class="st6" d="M274.7,150.3c0,4.3,3.6,7.7,7.9,7.7c4.3,0,7.8-3.4,7.8-7.7c0-4.3-3.5-7.8-7.8-7.8
		C278.2,142.5,274.7,146,274.7,150.3z"/>
	<rect x="251.1" y="142.5" class="st6" width="31.9" height="15.5"/>
	<path class="st6" d="M260,84.2c2.2,3.7,6.9,4.9,10.7,2.7c3.7-2.2,5-6.8,2.9-10.5c-2.2-3.7-6.9-5-10.7-2.9
		C259.1,75.7,257.8,80.5,260,84.2z"/>
	<path class="st6" d="M244.1,102.2c-3.7,2.2-8.4,1-10.6-2.8c-2.2-3.7-0.9-8.5,2.9-10.7"/>
	<rect x="237.8" y="80" transform="matrix(0.866 -0.5 0.5 0.866 -9.9029 138.6277)" class="st6" width="31.9" height="15.5"/>
	<path class="st6" d="M213,35.1c3.7,2.2,8.4,0.8,10.6-3c2.2-3.7,1-8.4-2.8-10.6c-3.7-2.2-8.5-0.9-10.7,2.9
		C208,28.2,209.2,33,213,35.1z"/>
	<path class="st6" d="M205.5,48c3.7,2.2,4.9,6.9,2.7,10.7c-2.2,3.7-6.8,5-10.5,2.9c-3.7-2.2-5-6.9-2.9-10.7
		C197,47.1,201.8,45.9,205.5,48z"/>
	<rect x="193.4" y="33.6" transform="matrix(0.5 -0.866 0.866 0.5 68.8344 201.9861)" class="st6" width="31.9" height="15.5"/>
</g>
<g id="Layer_5">
</g>
<rect x="112" y="281" class="st19" width="77.9" height="32.6"/>
<rect x="104.7" y="241.4" class="st20" width="19.6" height="29.3"/>
<rect x="159.1" y="147" class="st20" width="3.4" height="3.4"/>
<rect x="159.8" y="147" class="st20" width="3.4" height="3.4"/>
<rect x="175.3" y="192.8" class="st20" width="3.4" height="3.4"/>
<rect x="175.3" y="191" class="st20" width="3.4" height="3.4"/>
</svg>
