<?xml version="1.0" encoding="utf-8"?>
<!-- Generator: Adobe Illustrator 19.2.1, SVG Export Plug-In . SVG Version: 6.00 Build 0)  -->
<svg version="1.1" id="Layer_1" xmlns="http://www.w3.org/2000/svg" xmlns:xlink="http://www.w3.org/1999/xlink" x="0px" y="0px"
	 viewBox="0 0 245.7 130.2" style="enable-background:new 0 0 245.7 130.2;" xml:space="preserve">
<style type="text/css">
	.st0{fill:#932A8E;}
	.st1{fill:#B4B4B4;}
	.st2{fill:#752672;}
	.st3{fill:#333333;}
	.st4{fill:#EC2227;}
	.st5{fill:#FAF183;}
	.st6{fill:#ADD2E1;}
</style>
<path class="st0" d="M72.5,0h30.1c53.2,0,63.1,27.3,83.6,40.6c14.5,9.4,26.5,10.3,34.4,12.2c11.2,2.8,17.7,10,20.7,15.9
	c2.9,5.7,4.3,18.8,4.3,25.2c0,7.3-4.9,10.1-9.7,10.1H12.3c-4.8,0-7.1-5.6-7.5-10.3c-0.6-7.5-1.6-21.6,0-29.1
	C10.2,39.9,29.8,0,72.5,0z"/>
<g>
	<path class="st1" d="M245.7,93.8c0-0.9,0-1.8-0.1-2.9L4.3,87.7c0.1,2.3,0.3,4.2,0.5,5.9c0.4,4.7,2.8,10.3,7.5,10.3H236
		C240.7,104,245.7,101.2,245.7,93.8z"/>
</g>
<path class="st2" d="M23.7,104c0-19,14.4-32.2,32.2-32.2S88.1,85,88.1,104H23.7z"/>
<path class="st3" d="M55.7,130.2c-13.9,0-25.2-11.3-25.2-25.2s11.3-25.2,25.2-25.2S80.9,91.1,80.9,105
	C80.9,118.9,69.6,130.2,55.7,130.2"/>
<circle class="st1" cx="55.7" cy="104.9" r="17"/>
<path class="st2" d="M159.3,104c0-19,14.4-32.2,32.2-32.2S223.7,85,223.7,104H159.3z"/>
<circle class="st3" cx="191.3" cy="104.9" r="25.2"/>
<circle class="st1" cx="191.3" cy="104.9" r="17"/>
<g>
	<path class="st4" d="M4.2,70.8c-2.3,0.8-4.2,3-4.2,5.7v0.7c0,2.7,1.7,4.9,4.2,5.7C4,78.9,4,74.7,4.2,70.8z"/>
	<path class="st5" d="M231.3,61.2c-3,1.6-4.1,5.4-2.5,8.4l2.4,4.5c1.6,3,5.4,4.1,8.4,2.5l0.6-0.3c1.3-0.7,2.2-1.8,2.7-3
		c-0.5-1.8-1-3.3-1.7-4.5c-1.4-2.7-3.6-5.8-6.7-8.5c-0.9,0-1.9,0.2-2.8,0.7L231.3,61.2z"/>
</g>
<path class="st6" d="M121,6.9c0,0,37.9,3.1,56.2,39.1H121V6.9z"/>
<rect x="68" y="5" class="st6" width="45" height="41"/>
<path class="st6" d="M61,6.9V46c0,0-21,0-35.5,0C10.6,46,37,8.1,61,6.9z"/>
<path class="st3" d="M135,57c0,1.1-0.9,2-2,2h-10c-1.1,0-2-0.9-2-2l0,0c0-1.1,0.9-2,2-2h10C134.1,55,135,55.9,135,57L135,57z"/>
<path class="st3" d="M82,57c0,1.1-0.9,2-2,2H70c-1.1,0-2-0.9-2-2l0,0c0-1.1,0.9-2,2-2h10C81.1,55,82,55.9,82,57L82,57z"/>
<path class="st2" d="M181,43.1c0-1.3-1.3-2.1-2.5-2.1h-16.6c-1.3,0-1.9,0.8-1.9,2.1v6.7c0,1.3,0.6,2.2,1.9,2.2h16.6
	c1.3,0,2.5-0.9,2.5-2.2V43.1z"/>
</svg>
