<?xml version="1.0" encoding="utf-8"?>
<!-- Generator: Adobe Illustrator 19.2.1, SVG Export Plug-In . SVG Version: 6.00 Build 0)  -->
<svg version="1.1" id="Layer_1" xmlns="http://www.w3.org/2000/svg" xmlns:xlink="http://www.w3.org/1999/xlink" x="0px" y="0px"
	 viewBox="0 0 303 133.4" style="enable-background:new 0 0 303 133.4;" xml:space="preserve">
<style type="text/css">
	.st0{fill:#FCF47E;}
	.st1{fill:#ED1C24;}
	.st2{fill:#29ABE2;}
	.st3{fill:#B3B3B3;}
	.st4{fill:#228DBA;}
	.st5{fill:#333333;}
	.st6{fill:#ACD2E2;}
</style>
<g>
	<g>
		<path class="st0" d="M303,63c0-5-4-9-9-9l0,0c-5,0-9,4-9,9v8c0,5,4,9,9,9l0,0c5,0,9-4,9-9V63z"/>
		<path class="st1" d="M0,82.9C0,86.7,1.8,90,5.6,90h4.1c3.8,0,8.2-3.3,8.2-7.1v-0.1c0-3.8-4.4-6.8-8.2-6.8H5.6
			C1.8,76,0,78.9,0,82.8L0,82.9z"/>
		<path class="st2" d="M2.7,52H7h119h6v4.2v11.7v32.7c0,2.6-3.4,4.4-6,4.4H7c-2.6,0-4.3-2.1-4.3-4.7L2.7,52z"/>
		<path class="st2" d="M142.4,0h30.3c24.8,0,39.7,42.1,39.7,42.1l77.5,2.4c2.6,0,5.2,2.1,5.2,4.7v51.3c0,2.6-3.1,4.4-5.6,4.4h-161
			c-2.6,0-3.4-1.8-3.4-4.4v-49v-2.3V18.9C125,8.6,132,0,142.4,0z"/>
		<rect x="261" y="94" class="st3" width="39" height="11"/>
		<rect x="88" y="94" class="st3" width="107" height="11"/>
		<rect x="0" y="94" class="st3" width="25" height="11"/>
		<path class="st4" d="M261.6,105c0-21-15.8-35.2-35.2-35.2c-19.5,0-35.2,14.2-35.2,35.2H261.6z"/>
		<path class="st4" d="M91.3,105c0-21-15.8-35.2-35.2-35.2C36.6,69.8,20.8,84,20.8,105H91.3z"/>
		<circle class="st5" cx="226.6" cy="105.8" r="27.6"/>
		<circle class="st3" cx="226.6" cy="105.8" r="21.1"/>
		<circle class="st5" cx="226.6" cy="105.8" r="13.2"/>
		<circle class="st5" cx="56.3" cy="105.8" r="27.6"/>
		<circle class="st3" cx="56.3" cy="105.8" r="21.1"/>
		<circle class="st5" cx="56.3" cy="105.8" r="13.2"/>
		<rect x="0" y="52" class="st4" width="125" height="6"/>
		<path class="st3" d="M281,53.8c0-1-0.8-1.8-1.8-1.8h-59.5c-1,0-1.8,0.8-1.8,1.8v1.5c0,1,0.8,1.8,1.8,1.8h59.5c1,0,1.8-0.8,1.8-1.8
			V53.8z"/>
		<path class="st5" d="M148,67.3c0-1.3-1-2.3-2.3-2.3h-11.3c-1.3,0-2.3,1-2.3,2.3v0.3c0,1.3,1,2.3,2.3,2.3h11.3c1.3,0,2.3-1,2.3-2.3
			V67.3z"/>
		<path class="st6" d="M132,16.7c0-4.9,2.7-9.7,7.7-9.7h33.6c17.9,0,29.3,28.6,31.3,41.2c0.8,4.9-4,9.8-9,9.8h-56
			c-4.9,0-7.7-5-7.7-10V16.7z"/>
	</g>
	<path class="st4" d="M210,41.9c0-1-0.8-1.9-1.9-1.9h-21.2c-1,0-1.9,0.8-1.9,1.9v8.2c0,1,0.8,1.9,1.9,1.9h21.2c1,0,1.9-0.8,1.9-1.9
		V41.9z"/>
</g>
</svg>
