<?xml version="1.0" encoding="utf-8"?>
<!-- Generator: Adobe Illustrator 19.2.1, SVG Export Plug-In . SVG Version: 6.00 Build 0)  -->
<svg version="1.1" id="Layer_1" xmlns="http://www.w3.org/2000/svg" xmlns:xlink="http://www.w3.org/1999/xlink" x="0px" y="0px"
	 viewBox="0 0 294.2 112.6" style="enable-background:new 0 0 294.2 112.6;" xml:space="preserve">
<style type="text/css">
	.st0{fill:#EC2227;}
	.st1{fill:#00A99D;}
	.st2{fill:#B4B4B4;}
	.st3{fill:#676767;}
	.st4{fill:#089086;}
	.st5{fill:#333333;}
	.st6{fill:#FAF183;}
</style>
<g>
	<path class="st0" d="M4.4,62.9C1.8,64-0.2,66.7,0,69.7v0.8c0.1,3.1,2.3,5.7,5.1,6.4C4.6,72.4,4.4,67.4,4.4,62.9z"/>
	<path class="st1" d="M159.9,2.1c21,4,55.8,35.3,55.8,35.3c68.8,0,75.5,20.5,77.2,29.5h-0.7v23H6.6c0,0-6.6-28.3,0-33.3
		C97.7-12.2,150,0.2,159.9,2.1z"/>
	<path class="st2" d="M294.2,83.6c0-1.4-0.7-2.7-1.6-2.7H3.6c-1,0-1.4,1.3-1.4,2.7v3.8c0,1.4,0.5,2.5,1.4,2.5h288.9
		c1,0,1.6-1.1,1.6-2.5v-3.8H294.2z"/>
	<path class="st3" d="M204,37.9H49.1c0,0,45.6-34.6,101.5-31.4C150.6,6.5,174,5.9,204,37.9z"/>
	<rect x="122.2" y="5.9" class="st1" width="9" height="34"/>
	<path class="st4" d="M266,89.9c0-16-11.8-26.8-26.3-26.8c-14.6,0-26.3,10.8-26.3,26.8H266z"/>
	<ellipse class="st5" cx="239.9" cy="91.6" rx="20.6" ry="21"/>
	<ellipse class="st2" cx="239.9" cy="91.6" rx="13.9" ry="14.1"/>
	<path class="st4" d="M77.3,89.9c0-16-11.8-26.8-26.3-26.8S24.7,73.9,24.7,89.9H77.3z"/>
	<ellipse class="st5" cx="51.1" cy="91.6" rx="20.6" ry="21"/>
	<ellipse class="st2" cx="51.1" cy="91.6" rx="13.9" ry="14.1"/>
	<path class="st4" d="M154.2,50.5c0-1.7-1.6-3.6-3.3-3.6h-16.5c-1.7,0-3.2,1.9-3.2,3.6v0.8c0,1.7,1.5,2.6,3.2,2.6h16.5
		c1.7,0,3.3-0.9,3.3-2.6V50.5z"/>
	<g>
		<path class="st6" d="M283.8,58.8c1-1.3,2.1-2,3.9-2.2c3.2,4.1,4.6,8.2,4.6,11.2l0,0v6.8c-2-0.5-3-1.4-4.6-2.7
			C282.6,68,281.2,62.2,283.8,58.8z"/>
	</g>
</g>
</svg>
