<?xml version="1.0" encoding="utf-8"?>
<!-- Generator: Adobe Illustrator 19.2.1, SVG Export Plug-In . SVG Version: 6.00 Build 0)  -->
<svg version="1.1" id="Layer_1" xmlns="http://www.w3.org/2000/svg" xmlns:xlink="http://www.w3.org/1999/xlink" x="0px" y="0px"
	 viewBox="0 0 300 109.9" style="enable-background:new 0 0 300 109.9;" xml:space="preserve">
<style type="text/css">
	.st0{fill:#FAF183;}
	.st1{fill:#EC2227;}
	.st2{fill:#079247;}
	.st3{fill:#B4B4B4;}
	.st4{fill:#333333;}
	.st5{fill:#CDCCCC;}
	.st6{fill:#ADD2E1;}
	.st7{fill:#046937;}
</style>
<g>
	<path class="st0" d="M291.1,71.7V61.6c0-2.4,1.9-4.4,4.4-4.4h0.1c2.4,0,4.4,1.9,4.4,4.4v10.1c0,2.4-2,4.4-4.4,4.4h-0.2
		c-2.4,0-4.4-1.9-4.4-4.4H291.1z"/>
	<path class="st1" d="M6.2,63.9c0.7-3.1,3.8-5,6.9-4.2l5.5,1.4c3.1,0.8,5,3.8,4.2,6.9l0,0c-0.8,3.1-3.8,5-6.9,4.2l-5.5-1.4
		C7.3,70,5.4,67,6.2,63.9L6.2,63.9z"/>
	<path class="st2" d="M6.7,89.1h65.7h22.8h121.5H294V58.3c0-12.6-9.6-22.2-22.3-22.2h-58c-7.6-8-28.3-36-54.3-36c0,0-52.9,0-73.7,0
		C79.5,0.1,25.9-5.9,6.7,89.1z"/>
	<path class="st3" d="M0,85.9v-0.6c0-2.9,2.3-5.2,5.2-5.2h289.6c2.9,0,5.2,2.3,5.2,5.2v0.6c0,2.9-2.3,5.2-5.2,5.2H5.2
		C2.3,91.1,0,88.8,0,85.9L0,85.9z"/>
	<g>
		<circle class="st4" cx="240.5" cy="85.1" r="24.8"/>
		<circle class="st3" cx="240.5" cy="85.1" r="16.7"/>
		<circle class="st5" cx="240.5" cy="85.1" r="12.7"/>
	</g>
	<g>
		<circle class="st4" cx="58.2" cy="85.1" r="24.8"/>
		<circle class="st3" cx="58.2" cy="85.1" r="16.7"/>
		<circle class="st5" cx="58.2" cy="85.1" r="12.7"/>
	</g>
	<path class="st6" d="M160.1,6.7c-20,0-74.7,0.6-74.7,0.6c-30.1,0-47.2,28.8-47.2,28.8h165.2C185.7,12.1,169.1,6.8,160.1,6.7z"/>
	<rect x="123" y="6.1" class="st2" width="8" height="34"/>
	<path class="st7" d="M131,47.9c0-2.1,1.7-3.8,3.8-3.8h13.4c2.1,0,3.8,1.7,3.8,3.8v0.4c0,2.1-1.7,3.8-3.8,3.8h-13.4
		c-2.1,0-3.8-1.7-3.8-3.8V47.9z"/>
	<path class="st7" d="M102,47.9c0-2.1,1.7-3.8,3.8-3.8h13.4c2.1,0,3.8,1.7,3.8,3.8v0.4c0,2.1-1.7,3.8-3.8,3.8h-13.4
		c-2.1,0-3.8-1.7-3.8-3.8V47.9z"/>
	<path class="st7" d="M178,37.4c0,2.4,2.4,3.9,4.8,3.9l18.5,1.9c2.4,0,3.7-1.5,3.7-3.9v-7c0-2.4-1.5-4.3-3.9-4.3l-18.2-1.9
		c-2.5,0-4.9,1.9-4.9,4.3L178,37.4L178,37.4z"/>
</g>
</svg>
