<?xml version="1.0" encoding="utf-8"?>
<!-- Generator: Adobe Illustrator 19.2.1, SVG Export Plug-In . SVG Version: 6.00 Build 0)  -->
<svg version="1.1" id="Layer_1" xmlns="http://www.w3.org/2000/svg" xmlns:xlink="http://www.w3.org/1999/xlink" x="0px" y="0px"
	 viewBox="0 0 297.2 94" style="enable-background:new 0 0 297.2 94;" xml:space="preserve">
<style type="text/css">
	.st0{fill:#EC2227;}
	.st1{fill:#FBB03C;}
	.st2{fill:#333333;}
	.st3{fill:#CDCCCC;}
	.st4{fill:#676767;}
	.st5{fill:#FAF183;}
</style>
<g>
	<path class="st0" d="M22.3,54.4c0,3.6-3.1,7-6.7,7h-4.9c-3.6,0-6.4-3.4-6.4-7v-0.9c0-3.6,2.9-6.1,6.4-6.1h4.9
		c3.6,0,6.7,2.5,6.7,6.1V54.4z"/>
	<path class="st1" d="M1.7,41c23.3-13.3,83-53,140-37.4c0,0,12,2.9,31.2,18.8c0,0,105.1-5.9,124.3,26.3c0,0-10.2,17.4-88.7,21.3
		c0,0-127.3,1.3-160.4,0.4c0,0-10.2,1-24.1-7.7C10,54-5.2,44.9,1.7,41z"/>
	<g>
		<g>
			<path class="st2" d="M54,71.2l56.6,0.4c0-10-5.2-20.2-13-24.2H67C59.2,51.4,54,61.3,54,71.2z"/>
		</g>
		<path class="st2" d="M58.5,69.8c0,13.2,10.7,23.9,23.8,23.9c13.2,0,23.8-10.7,23.8-23.9S95.5,46.2,82.3,46.2
			C69.2,46.2,58.5,56.6,58.5,69.8z"/>
		<ellipse class="st3" cx="82.3" cy="69.8" rx="18.2" ry="18.2"/>
		<ellipse class="st4" cx="82.3" cy="69.8" rx="14.5" ry="14.5"/>
	</g>
	<g>
		<path class="st2" d="M250.9,65.8c1-0.4,4.4-0.5,4.4-0.8c-0.9-12-13.8-23.3-27.9-23.3c-15.6,0-28.3,12.4-28.3,28.3l52.1,0.1
			L250.9,65.8z"/>
		<ellipse class="st2" cx="227.4" cy="70.1" rx="23.8" ry="23.9"/>
		<ellipse class="st3" cx="227.4" cy="70.1" rx="18.2" ry="18.2"/>
		<ellipse class="st4" cx="227.4" cy="70.1" rx="14.5" ry="14.5"/>
	</g>
	<g>
		<path class="st4" d="M85,25.4L75.8,5.8C57.7,11,41,18.9,27.4,26.2C66.7,29.5,85,25.4,85,25.4z"/>
		<path class="st4" d="M92.2,7.8C92.2,7.8,104,28,119,28c0,0,35.7,2.4,53.6-5.8C157.1,9.4,146.3,5.1,142.8,4
			C125.7,4.5,92.7,5.7,92.2,7.8z"/>
	</g>
	<path class="st2" d="M128.8,39.4c0,1.1-0.9,2-2,2h-9.9c-1.1,0-2-0.9-2-2l0,0c0-1.1,0.9-2,2-2h9.9C127.9,37.4,128.8,38.3,128.8,39.4
		L128.8,39.4z"/>
	<ellipse class="st5" cx="277.6" cy="49.3" rx="5.3" ry="5.3"/>
</g>
</svg>
