<?xml version="1.0" encoding="utf-8"?>
<!-- Generator: Adobe Illustrator 19.2.1, SVG Export Plug-In . SVG Version: 6.00 Build 0)  -->
<svg version="1.1" id="Layer_1" xmlns="http://www.w3.org/2000/svg" xmlns:xlink="http://www.w3.org/1999/xlink" x="0px" y="0px"
	 viewBox="0 0 298.7 114.8" style="enable-background:new 0 0 298.7 114.8;" xml:space="preserve">
<style type="text/css">
	.st0{fill:#F07822;}
	.st1{fill:#EC2227;}
	.st2{fill:#FAF183;}
	.st3{fill:#ADD2E1;}
	.st4{fill:#CC6628;}
	.st5{fill:#333333;}
	.st6{fill:#B4B4B4;}
</style>
<g>
	<path class="st0" d="M48.5,0c35.4,0,107.3,0,141.3,0c21.8,0,37.2,40,49.4,40c8.6,0,30.6,0,30.6,0c16,0,28.9,11.7,28.9,26.2
		c0,3.8,0,17.1,0,17.1c0,5.1-4.4,8.7-10,8.7h-18.8H9.9C4.3,92,0,88.4,0,83.3c0,0,0-28.1,0-39.4C0,22.1,31.3,0,48.5,0z"/>
	<path class="st1" d="M0,59.1c0,0,7.7-0.5,7.7,5.7v3.5c0,4-4.4,4.8-7.7,4.8l0,0L0,59.1L0,59.1z"/>
	<g>
		<path class="st2" d="M287.6,57.8V47.3c0-0.7-0.2-1.3-0.1-1.9c6.9,4.8,11.1,12.3,11.1,20.8c0,1.4,0-2,0,0.9c0,0-0.4,0.1-0.9,0.1
			C292,67.3,287.6,63,287.6,57.8z"/>
	</g>
	<path class="st3" d="M139.9,12.3c0-3.5-3.1-6.3-6.9-6.3H84.1c-3.9,0-6.9,2.8-6.9,6.3v23.4c0,3.5,3.1,6.3,6.9,6.3H133
		c3.9,0,6.9-2.8,6.9-6.3V12.3L139.9,12.3z"/>
	<path class="st3" d="M9.1,35.6C8.3,39,12.3,42,16.2,42h46.4c3.9,0,5.9-2.8,5.9-6.3V12.6c0-3.5-2.1-6.6-5.9-6.6c0,0-12.8,0-18.5,0
		C29.3,6,11.6,25.8,9.1,35.6z"/>
	<path class="st3" d="M151,35.7c0,3.5,2.6,6.3,6.4,6.3h53.3c3.9,0,6.9-2.6,6.9-6.4C217.6,25,199.9,6,187.5,6h-30.1
		c-3.9,0-6.4,3.1-6.4,6.6L151,35.7L151,35.7z"/>
	<g>
		<path class="st4" d="M288.6,92h-18.9H9.9C4.3,92,0,88.4,0,83.3c0,0,0-0.3,0-3.3h298.6c0,3,0,3.3,0,3.3
			C298.6,88.4,294.2,92,288.6,92z"/>
	</g>
	<g>
		<path class="st4" d="M279.4,92c0-16-13.2-26.7-29.4-26.7S220.6,76,220.6,92H279.4z"/>
		<ellipse class="st5" cx="250.2" cy="93.9" rx="23" ry="20.9"/>
		<ellipse class="st6" cx="250.2" cy="93.9" rx="15.5" ry="14.1"/>
	</g>
	<g>
		<path class="st4" d="M87.1,92c0-16-13.2-26.7-29.4-26.7S28.3,76,28.3,92H87.1z"/>
		<ellipse class="st5" cx="57.9" cy="93.9" rx="23" ry="20.9"/>
		<ellipse class="st6" cx="57.9" cy="93.9" rx="15.5" ry="14.1"/>
	</g>
	<path class="st5" d="M150.7,54.5c0,1.2,1,2.5,2.3,2.5h16.3c1.3,0,2.3-1.3,2.3-2.5l0,0c0-1.2-1-2.5-2.3-2.5H153
		C151.8,52,150.7,53.3,150.7,54.5L150.7,54.5z"/>
	<path class="st5" d="M100.3,54.1c0-1.2-1-2.1-2.3-2.1H81.7c-1.3,0-2.3,0.9-2.3,2.1v0.8c0,1.2,1,2.1,2.3,2.1H98
		c1.3,0,2.3-0.9,2.3-2.1C100.3,54.9,100.3,54.1,100.3,54.1z"/>
	<path class="st4" d="M220.4,35.9c0-2.4-2.6-4.3-5.4-4.3l-18.9-0.1c-2.6,0-4.3,1.9-4.3,4.3v6c0,2.4,1.4,3.9,4.1,3.9l19.3,0.1
		c2.6,0,5.3-1.5,5.3-3.9L220.4,35.9L220.4,35.9z"/>
</g>
</svg>
