<?xml version="1.0" encoding="utf-8"?>
<!-- Generator: Adobe Illustrator 19.2.1, SVG Export Plug-In . SVG Version: 6.00 Build 0)  -->
<svg version="1.1" id="Layer_1" xmlns="http://www.w3.org/2000/svg" xmlns:xlink="http://www.w3.org/1999/xlink" x="0px" y="0px"
	 viewBox="0 0 293.8 92.6" style="enable-background:new 0 0 293.8 92.6;" xml:space="preserve">
<style type="text/css">
	.st0{fill:#333333;}
	.st1{fill:#676767;}
	.st2{fill:#FAF183;}
	.st3{fill:#EC2227;}
	.st4{fill:#B4B4B4;}
	.st5{fill:#ADD2E1;}
</style>
<g>
	<path class="st0" d="M29.6,70.2c0,1.2-0.6,2.5-1.8,2.5H5.9c-1.2,0-2.2-0.9-2.2-2.1L1.5,57.3c0-1.2,1-1.6,2.2-1.6h24.1
		c1.2,0,1.8-0.2,1.8,1V70.2z"/>
	<path class="st1" d="M122.5,0c-11.1,0.1-36.1,1-36.1,1C44.4,1,4,29.6,4,29.6c-11,7.7,3.7,28.6,10.1,38.7s13.8,8.5,13.8,8.5
		s178.4,0.6,242.3,0.6c10.4,0,23.6-12.8,23.6-30.8c0-12.4-29.6-19.9-45-21.2c-13.1-1.1-52.4-2.2-52.4-2.2C152.8,0.2,140-0.1,122.5,0
		z"/>
	<path class="st2" d="M274,35.3c-8.5-2.9-15.7-4-16.2-2.5c-0.5,1.4,6,4.9,14.4,7.8c8.5,2.9,15.7,4,16.2,2.5S282.4,38.1,274,35.3z"/>
	<g>
		<path class="st3" d="M1,43.6c-1.6-5.8-1.3-10.9,3.1-14c0,0,0.5-0.3,1.4-0.9c1.9,1.5,3.2,4,3.2,6.7C8.7,39.9,5.3,43.6,1,43.6z"/>
	</g>
	<g>
		<ellipse class="st0" cx="65.1" cy="64.7" rx="27.3" ry="27.9"/>
		<ellipse class="st4" cx="65.1" cy="64.7" rx="18.3" ry="18.7"/>
		<ellipse class="st0" cx="65.1" cy="64.7" rx="4.4" ry="4.5"/>
	</g>
	<g>
		<ellipse class="st0" cx="235.8" cy="64.7" rx="27.3" ry="27.9"/>
		<ellipse class="st4" cx="235.8" cy="64.7" rx="18.3" ry="18.7"/>
		<ellipse class="st0" cx="235.8" cy="64.7" rx="4.4" ry="4.5"/>
	</g>
	<rect x="85.6" y="70.7" class="st0" width="128" height="7"/>
	<g>
		<path class="st5" d="M159.7,6.4c9.3,3.5,21,9,36.6,17.3c0,0-0.4,0,0,0c-12.5,4.6-28.5,5-28.5,5s-48.9,0-70.2,0s-30.4-4.1-38.4-7.3
			s-5.1-7.7-3.9-8.3C59.8,10.7,71.2,2.5,159.7,6.4z"/>
		<rect x="82.6" y="3.7" class="st1" width="3" height="27"/>
		<polygon class="st1" points="134.4,1.1 132.4,5.1 183,31.6 185,27.6 		"/>
	</g>
	<path class="st0" d="M111,39.7c0-1.2-1-2-2.2-2H97.9c-1.2,0-2.2,0.8-2.2,2l0,0c0,1.2,1,2,2.2,2h10.9C110,41.7,111,40.9,111,39.7
		L111,39.7z"/>
</g>
</svg>
