<?xml version="1.0" encoding="utf-8"?>
<!-- Generator: Adobe Illustrator 19.2.1, SVG Export Plug-In . SVG Version: 6.00 Build 0)  -->
<svg version="1.1" id="Layer_1" xmlns="http://www.w3.org/2000/svg" xmlns:xlink="http://www.w3.org/1999/xlink" x="0px" y="0px"
	 viewBox="0 0 299.3 139" style="enable-background:new 0 0 299.3 139;" xml:space="preserve">
<style type="text/css">
	.st0{fill:#C1282D;}
	.st1{fill:#801A1A;}
	.st2{fill:#333333;}
	.st3{fill:#CDCCCC;}
	.st4{fill:#676767;}
	.st5{fill:#FAF183;}
</style>
<g>
	<g>
		<path class="st0" d="M22.2,20.8C22.2,20.8,24.9,0,40,0s122,0,130.9,0c5.7,0,10-0.1,18,10.3c11,14.2,25.2,30.7,25.2,30.7
			s55.7,7.4,71.9,14.7c11.1,5,13.2,22.3,13.2,35.1c0,18.7-13.3,20-13.3,20s-188.8,0-253.5,0c-5.6,0-17.8-1.9-17.8-13.6
			C14.7,85.5,22.2,20.8,22.2,20.8z"/>
		<g>
			<path class="st1" d="M14.7,97.2c0,11.7,12.3,13.6,17.8,13.6c64.6,0,253.5,0,253.5,0s13.2-1,13.3-20H15
				C14.8,93.8,14.7,95.8,14.7,97.2z"/>
		</g>
		<path class="st2" d="M214.2,41.5L188.5,9.8h-84.6c-1.2,0-0.9-0.2-0.9,1v28.1c0,1.2,0.3,2.5,1.5,2.5L214.2,41.5z"/>
		<path class="st2" d="M91.1,9.8H43.3c-6,0-10.5,3.7-10.5,9.7l-2,19.5c0,1.2,0.7,2.8,1.9,2.8h58.4c1.2,0,3.9-1.7,3.9-2.9V10.8
			C95,9.6,92.3,9.8,91.1,9.8z"/>
		<path class="st2" d="M122,51.8c0,1.7-1.3,3-3,3h-13c-1.7,0-3-1.3-3-3l0,0c0-1.7,1.3-3,3-3h13C120.7,48.8,122,50.1,122,51.8
			L122,51.8z"/>
		<path class="st2" d="M25,69c0,6-6.3,11.8-12.5,11.8h-1.8C4.4,80.8,0,75.1,0,69V39.5c0-6.1,4.4-10.7,10.6-10.7h1.8
			c6.3,0,12.6,4.6,12.6,10.7V69z"/>
		<path class="st2" d="M37.9,110.8c0-22,17.2-38.4,38.4-38.4s38.4,16.4,38.4,38.4L37.9,110.8L37.9,110.8z"/>
		<path class="st2" d="M195.8,110.8c0-22,17.2-38.4,38.4-38.4s38.4,16.4,38.4,38.4L195.8,110.8L195.8,110.8z"/>
		<circle class="st2" cx="76.3" cy="110.3" r="28.7"/>
		<circle class="st3" cx="76.3" cy="110.3" r="21.9"/>
		<circle class="st4" cx="76.3" cy="110.3" r="7.6"/>
		<circle class="st2" cx="234.2" cy="110.3" r="28.7"/>
		<circle class="st3" cx="234.2" cy="110.3" r="21.9"/>
		<circle class="st4" cx="234.2" cy="110.3" r="7.6"/>
		<g>
			<path class="st5" d="M291.8,62.8c-4.6,0-6.8,4.3-6.8,9.8v0.8c0,5.5,2.2,10.4,6.8,10.4h7.4c-0.4-7-1.8-15-5.4-21H291.8z"/>
		</g>
	</g>
	<rect x="176" y="7.8" class="st0" width="7" height="38"/>
	<path class="st1" d="M179,44.2c0,0.9-0.7,1.6-1.6,1.6h-17.7c-0.9,0-1.6-0.7-1.6-1.6v-7.7c0-0.9,0.7-1.6,1.6-1.6h17.7
		c0.9,0,1.6,0.7,1.6,1.6V44.2z"/>
</g>
</svg>
