<?xml version="1.0" encoding="utf-8"?>
<!-- Generator: Adobe Illustrator 19.2.1, SVG Export Plug-In . SVG Version: 6.00 Build 0)  -->
<svg version="1.1" id="Layer_1" xmlns="http://www.w3.org/2000/svg" xmlns:xlink="http://www.w3.org/1999/xlink" x="0px" y="0px"
	 viewBox="0 0 70 80" style="enable-background:new 0 0 70 80;" xml:space="preserve">
<style type="text/css">
	.st0{fill:#A2ABB1;}
	.st1{fill:#BDC3C7;}
</style>
<rect x="41" y="31" class="st0" width="25" height="7"/>
<g id="XMLID_2_">
	<path class="st0" d="M58.9,3.7L58.9,3.7V5v2.4V38H48.1V9.9V5.1V3.7l0,0c0-3.2-3-5.7-6.8-5.7h24.4C62-2,58.9,0.5,58.9,3.7z"/>
</g>
<rect x="8" y="65.9" class="st1" width="50" height="14.1"/>
<g id="XMLID_1_">
	<path class="st1" d="M43.8,11.4L43.8,11.4v2.7v4.8V80H22.2V23.7v-9.6v-2.7l0,0C22.2,5.1,16.1,0,8.5,0h48.9
		C49.9,0,43.8,5.1,43.8,11.4z"/>
</g>
</svg>
