<?xml version="1.0" encoding="utf-8"?>
<!-- Generator: Adobe Illustrator 19.2.1, SVG Export Plug-In . SVG Version: 6.00 Build 0)  -->
<svg version="1.1" id="Layer_1" xmlns="http://www.w3.org/2000/svg" xmlns:xlink="http://www.w3.org/1999/xlink" x="0px" y="0px"
	 viewBox="0 0 100 60" style="enable-background:new 0 0 100 60;" xml:space="preserve">
<style type="text/css">
	.st0{fill:#A3ACB2;}
	.st1{fill:#BDC3C7;}
</style>
<rect x="21.7" y="24.7" class="st0" width="18.7" height="5.2"/>
<g id="XMLID_2_">
	<path class="st0" d="M34.3,4.3L34.3,4.3v1V7v22.9h-8.1v-21V5.3v-1l0,0C26.2,1.9,24,0,21.2,0h18.3C36.6,0,34.3,1.9,34.3,4.3z"/>
</g>
<rect y="49.3" class="st1" width="37.4" height="10.5"/>
<g id="XMLID_1_">
	<path class="st1" d="M26.8,8.5L26.8,8.5v2v3.6v45.7H10.6V17.7v-7.2v-2l0,0C10.6,3.8,6.1,0,0.4,0h36.6C31.3,0,26.8,3.8,26.8,8.5z"/>
</g>
</svg>
