<?xml version="1.0" encoding="utf-8"?>
<!-- Generator: Adobe Illustrator 19.2.1, SVG Export Plug-In . SVG Version: 6.00 Build 0)  -->
<svg version="1.1" id="Layer_1" xmlns="http://www.w3.org/2000/svg" xmlns:xlink="http://www.w3.org/1999/xlink" x="0px" y="0px"
	 viewBox="0 0 60 80" style="enable-background:new 0 0 60 80;" xml:space="preserve">
<style type="text/css">
	.st0{fill:#A2ABB1;}
	.st1{fill:#BDC3C7;}
</style>
<rect x="34" y="33" class="st0" width="25" height="7"/>
<g id="XMLID_2_">
	<path class="st0" d="M50.9,5.7L50.9,5.7V7v2.4V40H40.1V11.9V7.1V5.7l0,0c0-3.2-3-5.7-6.8-5.7h24.5C54,0,50.9,2.5,50.9,5.7z"/>
</g>
<rect x="5" y="65.9" class="st1" width="50" height="14.1"/>
<g id="XMLID_1_">
	<path class="st1" d="M40.8,11.4L40.8,11.4v2.7v4.8V80H19.2V23.7v-9.6v-2.7l0,0C19.2,5.1,13.1,0,5.5,0h48.9
		C46.9,0,40.8,5.1,40.8,11.4z"/>
</g>
</svg>
