<?xml version="1.0" encoding="utf-8"?>
<!-- Generator: Adobe Illustrator 19.2.1, SVG Export Plug-In . SVG Version: 6.00 Build 0)  -->
<svg version="1.1" id="Layer_1" xmlns="http://www.w3.org/2000/svg" xmlns:xlink="http://www.w3.org/1999/xlink" x="0px" y="0px"
	 viewBox="0 0 50 80" style="enable-background:new 0 0 50 80;" xml:space="preserve">
<style type="text/css">
	.st0{fill:#A1AAB0;}
	.st1{fill:#BDC3C7;}
</style>
<rect x="25.9" y="31" class="st0" width="23.5" height="6.6"/>
<g id="XMLID_2_">
	<path class="st0" d="M42.7,5.4L42.7,5.4v1.3v2.3v28.7H32.6V11.1V6.6V5.4l0,0c0-3-2.9-5.4-6.4-5.4h23C45.6,0,42.7,2.4,42.7,5.4z"/>
</g>
<rect y="65.9" class="st1" width="50" height="14.1"/>
<g id="XMLID_1_">
	<path class="st1" d="M35.8,11.4L35.8,11.4v2.7v4.8V80H14.2V23.7v-9.6v-2.7l0,0C14.2,5.1,8.1,0,0.5,0h48.9
		C41.9,0,35.8,5.1,35.8,11.4z"/>
</g>
</svg>
