<?xml version="1.0" encoding="utf-8"?>
<!-- Generator: Adobe Illustrator 19.2.1, SVG Export Plug-In . SVG Version: 6.00 Build 0)  -->
<svg version="1.1" id="Layer_1" xmlns="http://www.w3.org/2000/svg" xmlns:xlink="http://www.w3.org/1999/xlink" x="0px" y="0px"
	 viewBox="0 0 2478.6 60" style="enable-background:new 0 0 2478.6 60;" xml:space="preserve">
<style type="text/css">
	.st0{fill:#233240;}
	.st1{fill:#F7BE38;stroke:#010101;stroke-miterlimit:10;}
	.st2{fill:#D2D7D4;}
</style>
<rect class="st0" width="2478.6" height="60"/>
<rect x="48.6" y="20.2" class="st1" width="25.9" height="5.2"/>
<rect x="8.1" y="20.2" class="st1" width="25.9" height="5.2"/>
<rect x="131.2" y="20.2" class="st1" width="25.9" height="5.2"/>
<rect x="90.7" y="20.2" class="st1" width="25.9" height="5.2"/>
<rect x="213.9" y="20.2" class="st1" width="25.9" height="5.2"/>
<rect x="173.3" y="20.2" class="st1" width="25.9" height="5.2"/>
<rect x="296.5" y="20.2" class="st1" width="25.9" height="5.2"/>
<rect x="256" y="20.2" class="st1" width="25.9" height="5.2"/>
<rect x="379" y="20.2" class="st1" width="25.9" height="5.2"/>
<rect x="338.5" y="20.2" class="st1" width="25.9" height="5.2"/>
<rect x="461.6" y="20.2" class="st1" width="25.9" height="5.2"/>
<rect x="421.1" y="20.2" class="st1" width="25.9" height="5.2"/>
<rect x="544.3" y="20.2" class="st1" width="25.9" height="5.2"/>
<rect x="503.7" y="20.2" class="st1" width="25.9" height="5.2"/>
<rect x="626.9" y="20.2" class="st1" width="25.9" height="5.2"/>
<rect x="586.4" y="20.2" class="st1" width="25.9" height="5.2"/>
<rect x="626.9" y="20.2" class="st1" width="25.9" height="5.2"/>
<rect x="586.4" y="20.2" class="st1" width="25.9" height="5.2"/>
<rect x="709.6" y="20.2" class="st1" width="25.9" height="5.2"/>
<rect x="669" y="20.2" class="st1" width="25.9" height="5.2"/>
<rect x="792.2" y="20.2" class="st1" width="25.9" height="5.2"/>
<rect x="751.7" y="20.2" class="st1" width="25.9" height="5.2"/>
<rect x="874.9" y="20.2" class="st1" width="25.9" height="5.2"/>
<rect x="834.3" y="20.2" class="st1" width="25.9" height="5.2"/>
<rect x="957.3" y="20.2" class="st1" width="25.9" height="5.2"/>
<rect x="916.8" y="20.2" class="st1" width="25.9" height="5.2"/>
<rect x="1040" y="20.2" class="st1" width="25.9" height="5.2"/>
<rect x="999.4" y="20.2" class="st1" width="25.9" height="5.2"/>
<rect x="1122.6" y="20.2" class="st1" width="25.9" height="5.2"/>
<rect x="1082.1" y="20.2" class="st1" width="25.9" height="5.2"/>
<rect x="1205.3" y="20.2" class="st1" width="25.9" height="5.2"/>
<rect x="1164.7" y="20.2" class="st1" width="25.9" height="5.2"/>
<rect y="52.7" class="st2" width="2478.6" height="7.3"/>
<rect class="st2" width="2478.6" height="3.9"/>
<rect x="1287.9" y="20.2" class="st1" width="25.9" height="5.2"/>
<rect x="1247.4" y="20.2" class="st1" width="25.9" height="5.2"/>
<rect x="1370.5" y="20.2" class="st1" width="25.9" height="5.2"/>
<rect x="1330" y="20.2" class="st1" width="25.9" height="5.2"/>
<rect x="1453.2" y="20.2" class="st1" width="25.9" height="5.2"/>
<rect x="1412.6" y="20.2" class="st1" width="25.9" height="5.2"/>
<rect x="1535.8" y="20.2" class="st1" width="25.9" height="5.2"/>
<rect x="1495.3" y="20.2" class="st1" width="25.9" height="5.2"/>
<rect x="1618.3" y="20.2" class="st1" width="25.9" height="5.2"/>
<rect x="1577.7" y="20.2" class="st1" width="25.9" height="5.2"/>
<rect x="1700.9" y="20.2" class="st1" width="25.9" height="5.2"/>
<rect x="1660.4" y="20.2" class="st1" width="25.9" height="5.2"/>
<rect x="1783.6" y="20.2" class="st1" width="25.9" height="5.2"/>
<rect x="1743" y="20.2" class="st1" width="25.9" height="5.2"/>
<rect x="1866.2" y="20.2" class="st1" width="25.9" height="5.2"/>
<rect x="1825.7" y="20.2" class="st1" width="25.9" height="5.2"/>
<rect x="1866.2" y="20.2" class="st1" width="25.9" height="5.2"/>
<rect x="1825.7" y="20.2" class="st1" width="25.9" height="5.2"/>
<rect x="1948.9" y="20.2" class="st1" width="25.9" height="5.2"/>
<rect x="1908.3" y="20.2" class="st1" width="25.9" height="5.2"/>
<rect x="2031.5" y="20.2" class="st1" width="25.9" height="5.2"/>
<rect x="1991" y="20.2" class="st1" width="25.9" height="5.2"/>
<rect x="2114.2" y="20.2" class="st1" width="25.9" height="5.2"/>
<rect x="2073.6" y="20.2" class="st1" width="25.9" height="5.2"/>
<rect x="2196.6" y="20.2" class="st1" width="25.9" height="5.2"/>
<rect x="2156.1" y="20.2" class="st1" width="25.9" height="5.2"/>
<rect x="2279.3" y="20.2" class="st1" width="25.9" height="5.2"/>
<rect x="2238.7" y="20.2" class="st1" width="25.9" height="5.2"/>
<rect x="2361.9" y="20.2" class="st1" width="25.9" height="5.2"/>
<rect x="2321.4" y="20.2" class="st1" width="25.9" height="5.2"/>
<rect x="2444.5" y="20.2" class="st1" width="25.9" height="5.2"/>
<rect x="2404" y="20.2" class="st1" width="25.9" height="5.2"/>
</svg>
